<?xml version="1.0" encoding="UTF-8" standalone="no"?>
<!DOCTYPE svg PUBLIC "-//W3C//DTD SVG 1.1//EN" "http://www.w3.org/Graphics/SVG/1.1/DTD/svg11.dtd">
<svg width="100%" height="100%" viewBox="0 0 3334 2500" version="1.1" xmlns="http://www.w3.org/2000/svg" xmlns:xlink="http://www.w3.org/1999/xlink" xml:space="preserve" xmlns:serif="http://www.serif.com/" style="fill-rule:evenodd;clip-rule:evenodd;stroke-linecap:round;stroke-linejoin:round;stroke-miterlimit:1.5;">
    <g transform="matrix(4.16667,0,0,4.16667,0,0)">
        <g id="BACKGROUND-SEAL" serif:id="BACKGROUND SEAL" transform="matrix(0.106851,0,0,0.106851,608.119,930.812)">
            <g transform="matrix(1.47002,0,0,1.40609,-2008.79,-3324.97)">
                <path d="M0,-3723.13L21.071,-3703.99C58.643,-3669.87 114.31,-3664.86 157.37,-3691.72L181.549,-3706.81C231.122,-3737.74 296.081,-3725.95 331.621,-3679.57L348.91,-3657C379.78,-3616.72 433.656,-3601.84 480.824,-3620.58L507.271,-3631.09C561.563,-3652.66 623.36,-3629.47 650.049,-3577.5L663.06,-3552.16C686.247,-3507.01 736.609,-3482.76 786.366,-3492.79L814.28,-3498.42C871.557,-3509.96 928.23,-3476.11 945.216,-3420.2L953.492,-3392.97C968.243,-3344.42 1013.44,-3311.57 1064.18,-3312.53L1092.69,-3313.08C1151.1,-3314.19 1200.8,-3270.76 1207.52,-3212.73L1210.8,-3184.46C1216.64,-3134.04 1255.26,-3093.64 1305.37,-3085.54L1333.48,-3081C1391.17,-3071.68 1432.33,-3020.06 1428.58,-2961.75L1426.75,-2933.34C1423.5,-2882.68 1454.29,-2836.03 1502.15,-2819.12L1528.96,-2809.64C1584.05,-2790.18 1615.34,-2732.04 1601.24,-2675.34L1594.38,-2647.72C1582.13,-2598.47 1604.1,-2547.08 1648.15,-2521.89L1672.89,-2507.74C1723.6,-2478.75 1744,-2415.98 1720.02,-2362.71L1708.3,-2336.7C1687.47,-2290.43 1699.91,-2235.95 1738.76,-2203.3L1760.57,-2184.97C1805.3,-2147.38 1814.15,-2081.97 1781.04,-2033.84L1764.91,-2010.4C1736.14,-1968.59 1738.65,-1912.75 1771.06,-1873.68L1789.23,-1851.78C1826.54,-1806.81 1823.58,-1740.85 1782.38,-1699.4L1762.32,-1679.22C1726.54,-1643.21 1719.03,-1587.82 1743.94,-1543.59L1757.9,-1518.81C1786.58,-1467.91 1771.9,-1403.55 1723.99,-1370.12L1700.61,-1353.81C1658.99,-1324.77 1641.73,-1271.62 1658.33,-1223.67L1667.65,-1196.77C1686.77,-1141.57 1660.83,-1080.87 1607.72,-1056.54L1581.81,-1044.67C1535.68,-1023.53 1509.2,-974.332 1516.97,-924.189L1521.34,-896.004C1530.28,-838.272 1493.91,-783.191 1437.31,-768.74L1409.71,-761.694C1360.54,-749.139 1325.68,-705.441 1324.38,-654.702L1323.65,-626.241C1322.16,-567.836 1276.54,-520.124 1218.26,-516.005L1189.88,-514.001C1139.26,-510.423 1097.17,-473.652 1086.83,-423.965L1081.03,-396.106C1069.13,-338.899 1015.71,-300.097 957.628,-306.464L929.364,-309.563C878.902,-315.094 830.91,-286.423 811.864,-239.368L801.189,-212.993C779.271,-158.838 719.804,-130.192 663.794,-146.806L636.473,-154.911C587.824,-169.341 535.51,-149.704 508.373,-106.826L493.139,-82.754C461.897,-33.39 398.271,-15.83 346.134,-42.181L320.69,-55.041C275.398,-77.931 220.413,-67.952 186.055,-30.604L166.759,-9.63C127.202,33.366 61.457,39.282 14.861,4.037L-7.833,-13.129C-48.312,-43.746 -104.203,-43.746 -144.681,-13.129L-167.375,4.037C-213.971,39.282 -279.716,33.366 -319.272,-9.63L-338.569,-30.605C-372.927,-67.952 -427.912,-77.931 -473.203,-55.042L-498.655,-42.179C-550.793,-15.829 -614.417,-33.389 -645.659,-82.753L-660.894,-106.826C-688.031,-149.704 -740.346,-169.34 -788.994,-154.91L-816.307,-146.807C-872.316,-130.192 -931.785,-158.839 -953.704,-212.994L-964.378,-239.368C-983.423,-286.423 -1031.42,-315.094 -1081.88,-309.563L-1110.15,-306.464C-1168.23,-300.097 -1221.65,-338.901 -1233.55,-396.11L-1239.35,-423.962C-1249.68,-473.65 -1291.77,-510.423 -1342.4,-514.001L-1370.77,-516.005C-1429.05,-520.124 -1474.67,-567.836 -1476.17,-626.241L-1476.9,-654.699C-1478.2,-705.439 -1513.05,-749.138 -1562.23,-761.692L-1589.84,-768.739C-1646.45,-783.19 -1682.82,-838.284 -1673.87,-896.022L-1669.5,-924.175C-1661.73,-974.325 -1688.21,-1023.54 -1734.34,-1044.67L-1760.24,-1056.54C-1813.35,-1080.87 -1839.29,-1141.57 -1820.17,-1196.78L-1810.85,-1223.67C-1794.25,-1271.62 -1811.51,-1324.77 -1853.12,-1353.81L-1876.52,-1370.13C-1924.42,-1403.56 -1939.1,-1467.9 -1910.44,-1518.8L-1896.47,-1543.61C-1871.57,-1587.83 -1879.08,-1643.21 -1914.85,-1679.21L-1934.91,-1699.4C-1976.1,-1740.85 -1979.06,-1806.81 -1941.75,-1851.78L-1923.57,-1873.68C-1891.16,-1912.75 -1888.65,-1968.59 -1917.42,-2010.4L-1933.55,-2033.84C-1966.67,-2081.97 -1957.81,-2147.38 -1913.08,-2184.97L-1891.27,-2203.3C-1852.42,-2235.95 -1839.99,-2290.43 -1860.82,-2336.7L-1872.53,-2362.71C-1896.51,-2415.98 -1876.12,-2478.75 -1825.4,-2507.74L-1800.66,-2521.89C-1756.61,-2547.08 -1734.65,-2598.47 -1746.89,-2647.72L-1753.76,-2675.34C-1767.85,-2732.04 -1736.57,-2790.18 -1681.48,-2809.64L-1654.66,-2819.12C-1606.8,-2836.03 -1576.01,-2882.68 -1579.27,-2933.34L-1581.09,-2961.75C-1584.84,-3020.06 -1543.68,-3071.68 -1486,-3081L-1457.89,-3085.54C-1407.78,-3093.64 -1369.16,-3134.04 -1363.31,-3184.46L-1360.04,-3212.73C-1353.31,-3270.76 -1303.61,-3314.19 -1245.21,-3313.08L-1216.7,-3312.54C-1165.97,-3311.57 -1120.76,-3344.42 -1106.02,-3392.98L-1097.76,-3420.18C-1080.78,-3476.1 -1024.1,-3509.96 -966.817,-3498.42L-938.885,-3492.79C-889.129,-3482.76 -838.769,-3507.01 -815.582,-3552.16L-802.57,-3577.5C-775.881,-3629.47 -714.084,-3652.66 -659.792,-3631.09L-633.337,-3620.58C-586.17,-3601.84 -532.294,-3616.72 -501.425,-3657L-484.136,-3679.57C-448.595,-3725.95 -383.635,-3737.74 -334.062,-3706.81L-309.89,-3691.72C-266.83,-3664.86 -211.163,-3669.87 -173.591,-3703.99L-152.515,-3723.13C-109.264,-3762.41 -43.25,-3762.41 0,-3723.13" style="fill-rule:nonzero;"/>
            </g>
            <g transform="matrix(9.35885,0,0,9.35885,-1929.04,-5491.88)">
                <g transform="matrix(0.827701,0.754201,-0.673526,0.739164,47.8529,185.427)">
                    <text x="-203.301px" y="123.056px" style="font-family:'ArialMT', 'Arial', sans-serif;font-size:64px;fill:white;">G</text>
                </g>
                <g transform="matrix(0.9645,0.568899,-0.508045,0.86133,75.3717,113.793)">
                    <text x="-161.117px" y="159.614px" style="font-family:'ArialMT', 'Arial', sans-serif;font-size:64px;fill:white;">o</text>
                </g>
                <g transform="matrix(1.03913,0.417265,-0.372631,0.927979,71.7606,65.6525)">
                    <text x="-126.392px" y="179.305px" style="font-family:'ArialMT', 'Arial', sans-serif;font-size:64px;fill:white;">r</text>
                </g>
                <g transform="matrix(1.08078,0.292962,-0.261625,0.96517,57.7525,37.1319)">
                    <text x="-104.332px" y="188.533px" style="font-family:'ArialMT', 'Arial', sans-serif;font-size:64px;fill:white;">d</text>
                </g>
                <g transform="matrix(1.1153,0.100023,-0.089324,0.996003,25.3086,7.36868)">
                    <text x="-65.738px" y="198.478px" style="font-family:'ArialMT', 'Arial', sans-serif;font-size:64px;fill:white;">o</text>
                </g>
                <g transform="matrix(1.11628,-0.0884582,0.0789961,0.996875,-12.9141,-1.66438)">
                    <text x="-25.94px" y="201.66px" style="font-family:'ArialMT', 'Arial', sans-serif;font-size:64px;fill:white;">n</text>
                </g>
                <g transform="matrix(1.0496,-0.390193,0.348455,0.937325,-69.3339,25.2496)">
                    <text x="33.516px" y="194.204px" style="font-family:'ArialMT', 'Arial', sans-serif;font-size:64px;fill:white;">P</text>
                </g>
                <g transform="matrix(0.985607,-0.531494,0.474641,0.880179,-82.596,62.4962)">
                    <text x="77.823px" y="176.378px" style="font-family:'ArialMT', 'Arial', sans-serif;font-size:64px;fill:white;">i</text>
                </g>
                <g transform="matrix(0.918613,-0.640356,0.571859,0.820352,-89.2601,89.4373)">
                    <text x="92.197px" y="169.209px" style="font-family:'ArialMT', 'Arial', sans-serif;font-size:64px;fill:white;">k</text>
                </g>
                <g transform="matrix(0.813507,-0.769489,0.687179,0.726489,-79.5269,134.217)">
                    <text x="121.562px" y="148.72px" style="font-family:'ArialMT', 'Arial', sans-serif;font-size:64px;fill:white;">e</text>
                </g>
            </g>
        </g>
        <g transform="matrix(1.6909,0,0,1.6909,6.47476,-128.751)">
            <g transform="matrix(19.6891,0,0,17.583,-3904.33,-2096.75)">
                <text x="202.548px" y="135.079px" style="font-family:'ArialMT', 'Arial', sans-serif;font-size:12.06px;fill:white;">G</text>
            </g>
            <g transform="matrix(19.7574,0,0,17.644,-5186.75,-1932.42)">
                <text x="273.308px" y="129.502px" style="font-family:'ArialMT', 'Arial', sans-serif;font-size:12.019px;fill:white;">P</text>
            </g>
            <g transform="matrix(0.639984,0,0,0.639984,-21.0136,72.8554)">
                <rect x="317" y="200" width="90" height="10" style="fill:white;stroke:white;stroke-width:0.46px;"/>
            </g>
        </g>
    </g>
</svg>
