<?xml version="1.0" encoding="UTF-8" standalone="no"?><!DOCTYPE svg PUBLIC "-//W3C//DTD SVG 1.1//EN" "http://www.w3.org/Graphics/SVG/1.1/DTD/svg11.dtd"><svg width="100%" height="100%" viewBox="0 0 3334 2500" version="1.1" xmlns="http://www.w3.org/2000/svg" xmlns:xlink="http://www.w3.org/1999/xlink" xml:space="preserve" xmlns:serif="http://www.serif.com/" style="fill-rule:evenodd;clip-rule:evenodd;stroke-linejoin:round;stroke-miterlimit:2;"><rect id="Artboard1" x="0" y="0" width="3333.33" height="2500" style="fill:none;"/><g id="Artboard11" serif:id="Artboard1"><g><path d="M1219.71,754.847c-36.479,-56.417 -117.111,-96.958 -272.396,-225.522c7.563,-35.562 16.379,-68.845 26.321,-99.915c3.456,-10.798 20.019,-15.249 23.741,-25.515c4.276,-11.796 -4.246,-29.322 0.368,-40.423c5.027,-12.097 23.221,-17.705 28.628,-28.989c6.858,-14.313 1.043,-34.056 8.475,-47.082c6.791,-11.902 20.297,-11.113 27.532,-21.959c7.062,-10.585 7.842,-32.829 15.296,-42.424c9.587,-12.34 25.971,-11.71 36.15,-22.443c8.007,-8.444 9.702,-28.553 18.04,-36.021c8.766,-7.851 24.191,-9.089 33.287,-15.881c9.44,-7.049 12.563,-19.612 22.319,-25.542c9.143,-5.558 31.387,-4.549 40.773,-9.142c12.663,-6.197 12.56,-17.602 25.592,-22.081c12.806,-4.401 25.77,-4.933 38.854,-7.717c14.638,-3.116 29.426,-8.283 44.309,-9.43c14.613,-1.127 22.831,10.84 37.574,11.555c12.774,0.62 32.064,-10.238 44.864,-8.274c13.037,2 26.071,22.925 39.064,26.282c14.348,3.707 28.647,-10.008 42.849,-4.696c16.062,6.007 43.82,4.642 47.744,21.017c6.685,27.893 38.518,27.067 44.181,27.303c52.508,2.182 53.422,6.98 52.234,35.556c-0.641,15.414 5.367,37.814 53.213,21.242c39.235,-13.589 4.567,40.041 27.677,32.037c59.045,-20.451 53.198,22.715 50.533,58.505c-0.56,7.515 57.003,-54.449 67.064,27.69c5.195,42.418 60.553,0.135 21.882,73.641c-113.75,136.858 -78.212,65.423 -289.46,242.13l-356.708,116.098Z" style="fill:#fff;"/><path d="M2687.86,1305.54c145.962,210.477 286.394,365.997 338.204,506.329c31.427,85.123 12.009,268.003 -40.327,350.825c-47.925,-286.532 -169.367,-438.941 -322.193,-413.379c20.807,169.926 -66.354,275.329 -200.611,352.588c124.259,-272.25 100.315,-345.39 18.238,-340.43c-109.973,0.135 -60.419,-98.62 -145.899,-66.87c-67.581,-135.945 30.142,-297.83 145.899,-419.459l206.689,30.396Z" style="fill:#fff;"/><path d="M997.864,1366.33c68.627,108.369 168.407,346.078 121.582,778.126c18.735,-15.453 19.165,-48.836 37.815,-63.676c15.359,-12.221 48.942,-5.998 64.305,-17.808c14.579,-11.207 17.014,-34.387 31.646,-45.226c15.128,-11.207 42.455,-10.06 57.692,-20.877c17.298,-12.28 28.603,-42.547 46.114,-54.329c21.062,-14.173 48.386,-9.749 69.88,-23.209c18.507,-11.589 25.04,-41.153 43.96,-52.22c17.785,-10.403 47.929,-2.339 66.152,-12.285c19.348,-10.559 32.883,-39.1 52.808,-49.149c21.881,-11.037 50.215,-3.53 72.9,-13.957c24.515,-11.269 43.453,-46.501 69.044,-57.067c22.614,-9.338 51.755,5.914 75.314,-2.881c20.128,-7.514 34.54,-33.069 55.425,-40.192c19.513,-6.655 45.449,5.097 65.674,-1.22c25.589,-7.991 39.61,-33.95 66.43,-41.406c22.528,-6.262 57.667,5.901 81.129,0.013c6.272,-1.573 18.658,-15.179 25,-16.726c25.982,-6.34 43.219,-4.761 66.111,-16.132c25.759,-12.795 32.745,-35.794 60.629,-46.296c21.126,-7.956 64.122,3.466 87.586,-6.895c23.238,-10.261 46.505,-11.269 68.841,4.022l38.387,-251.839c-592.214,67.237 -1099.08,115.35 -1424.42,51.229Z" style="fill:#fff;"/><path d="M1107.29,290.328c-1147.42,-4.128 -1137.43,1685.92 -6.079,1689.99l-109.424,-601.832c-141.661,-170.35 -144.783,-330.514 -6.079,-480.25l121.582,-607.91Zm-168.343,1568.37c-16.774,-0.302 -28.506,-105.402 -26.183,-234.555c2.322,-129.152 17.825,-233.763 34.598,-233.461c16.773,0.302 28.505,105.402 26.183,234.554c-2.322,129.153 -17.825,233.763 -34.598,233.462Zm-209.453,-58.889c-15.602,-6.164 10.266,-108.705 57.73,-228.842c47.464,-120.137 98.666,-212.668 114.268,-206.504c15.602,6.164 -10.266,108.705 -57.73,228.842c-47.464,120.137 -98.666,212.668 -114.268,206.504Zm-188.137,-142.584c-11.918,-11.806 52.211,-95.897 143.118,-187.667c90.907,-91.769 174.388,-156.69 186.306,-144.884c11.918,11.806 -52.211,95.897 -143.118,187.667c-90.907,91.769 -174.388,156.69 -186.306,144.884Zm-113.252,-243.158c-6.254,-15.566 85.98,-67.301 205.841,-115.458c119.861,-48.156 222.251,-74.615 228.505,-59.049c6.254,15.566 -85.98,67.301 -205.841,115.458c-119.862,48.156 -222.251,74.615 -228.505,59.049Zm-18.498,-199.866c-3.257,-16.457 96.975,-50.18 223.69,-75.261c126.715,-25.081 232.236,-32.084 235.493,-15.627c3.258,16.456 -96.974,50.18 -223.689,75.261c-126.715,25.081 -232.236,32.083 -235.494,15.627Zm-16.599,-181.698c0.181,-16.775 105.193,-29.268 234.359,-27.88c129.166,1.387 233.886,16.132 233.706,32.907c-0.18,16.774 -105.193,29.267 -234.359,27.88c-129.166,-1.387 -233.886,-16.132 -233.706,-32.907Zm37.361,-224.426c4.065,-16.276 109.112,-4.072 234.434,27.235c125.322,31.307 223.767,69.938 219.701,86.214c-4.066,16.275 -109.113,4.072 -234.435,-27.235c-125.322,-31.307 -223.766,-69.939 -219.7,-86.214Zm180.213,-293.795c12.488,-11.202 92.653,57.772 178.905,153.929c86.252,96.158 146.139,183.32 133.651,194.522c-12.488,11.201 -92.652,-57.772 -178.905,-153.93c-86.252,-96.158 -146.139,-183.32 -133.651,-194.521Zm264.167,-140.738c16.476,-3.16 49.607,97.269 73.94,224.13c24.333,126.861 30.713,232.421 14.237,235.581c-16.475,3.16 -49.606,-97.269 -73.94,-224.13c-24.333,-126.86 -30.712,-232.421 -14.237,-235.581Z" style="fill:#fff;"/></g><path d="M1003.94,831.368c905.725,-415.666 1767.6,-408.669 2115.53,-93.69c22.105,18.824 97.436,30.366 73.449,73.159c-22.203,39.61 -13.047,68.012 18.474,57.966c77.928,-24.836 -100.005,215.965 -273.911,271.389c-135.952,43.328 -196.989,148.837 -267.866,171.426c-598.684,58.239 -1169.86,134.494 -1677.83,60.791c-223.913,-130.57 -191.326,-447.655 12.158,-541.041Zm154.39,506.132c151.613,70.398 427.662,70.693 751.438,25.926c289.104,-31.559 277.729,-36.445 277.729,-36.445c-202.126,9.97 -692.784,-4.482 -1029.17,10.519Zm1645.11,-580.324c28.502,-9.209 65.386,8.395 72.051,29.023c6.666,20.628 -19.396,53.186 -47.898,62.395c-28.502,9.209 -69.553,-4.228 -76.218,-24.856c-6.665,-20.628 23.563,-57.353 52.065,-66.562Z" style="fill:#fff;"/><ellipse cx="2818.75" cy="804.167" rx="18.75" ry="25" style="fill:#fff;"/></g></svg>